<svg version="1.1" xmlns="http://www.w3.org/2000/svg" data-author="danbraj" style="position: absolute; width: 0; height: 0; overflow: hidden;">

<symbol id="apple" viewBox="0 0 64 64">
    <title>Jabłko</title>
    <g>
        <path d="M50.775 32.606c0 7.776-4.932 18.284-17.238 18.45-12.306.166-17.298-9.704-17.298-17.54 0-9.655 6.554-15.663 17.298-15.663 10.685 0 17.238 5.1 17.238 14.753z" fill="red"/><path d="M31.508 18.55c5.541-.04 7.705 1.4 4.801 2.03-2.378.514-4.07 1.844-5.377 1.892-2.878.107-5.984-3.877.576-3.923z" fill="#cb0000"/><path d="M31.917 22.01c-.106-.969-.228-1.105-.682-1.454-.454-.348-1.06-.704-1.643-2.25-.517-1.37-3.515-3.496-6.386-4.692a9.02 9.02 0 0 0-5.15-.503c-2.485.518-4.31 1.943-4.831 4.348 1.378-.578 3.065 1.06 5.317 1.785 2.326.747 4.653 1.162 6.376 2.062 1.28.668 4.052 1.394 4.923.31.62-.769 1.137-.991 1.455-.689.318.303.62 1.084.62 1.084z" fill="#5a8921"/><path d="M31.91 22.185c-.289-1.394-.707-4.071-.584-5.037.088-.688 1.8-.348 1.636.424-.272 1.275-.432 3.189-.28 4.204-.341.31-.773.409-.773.409z" fill="#866139"/>
    </g>
</symbol>

<symbol id="banana" viewBox="0 0 64 64">
    <title>Banan</title>
    <path d="M19.583 5.419C-8.62 39.605 24.157 73.094 57.287 49.453 33.238 48.281 14.145 25.26 19.583 5.42z" fill="#edd04f"/>
</symbol>

<symbol id="blueberries" viewBox="0 0 64 64">
    <title>Jagody</title>
    <path d="M23.074 11.625a7.701 7.701 0 0 0-7.7 7.702 7.701 7.701 0 0 0 7.7 7.702 7.701 7.701 0 0 0 7.702-7.702 7.701 7.701 0 0 0-7.702-7.702zm22.434 8.713a7.654 7.654 0 0 0-7.654 7.654 7.654 7.654 0 0 0 7.654 7.653 7.654 7.654 0 0 0 7.652-7.653 7.654 7.654 0 0 0-7.652-7.654zm-26.87 13.477a8.93 8.93 0 0 0-8.93 8.93 8.93 8.93 0 0 0 8.93 8.93 8.93 8.93 0 0 0 8.93-8.93 8.93 8.93 0 0 0-8.93-8.93zm22.054 8.808a7.276 7.276 0 0 0-7.276 7.276 7.276 7.276 0 0 0 7.276 7.276 7.276 7.276 0 0 0 7.276-7.276 7.276 7.276 0 0 0-7.276-7.276z" fill="#3e009f"/>
</symbol>

<symbol id="strawberry" viewBox="0 0 64 64">
    <title>Truskawka</title>
    <path d="M13.714 21.59c4.94-10.432 30.248-11.22 36.567 0 6.541 11.614-14.396 33.928-18.328 33.928-3.932 0-24.826-20.019-18.24-33.928z" fill="#d2001d"/>
</symbol>

<symbol id="pear" viewBox="0 0 64 64">
    <title>Gruszka</title>
    <path d="M31.81 10.752c5.988 0 5.444 6.46 7.799 9.956 3.886 5.772 10.383 7.63 10.383 18.108 0 10.516-7.983 17.97-17.912 18.12-9.93.15-18.072-6.103-18.072-14.532 0-13.025 5.787-13.403 9.459-19.691 2.45-4.198 2.353-11.96 8.342-11.96z" fill="#bfc721"/>
</symbol>

<symbol id="lemon" viewBox="0 0 64 64">
    <title>Cytryna</title>
    <path d="M48.78 32.879c0 12.003-13.347 13.477-16.78 21.733-3.15-8.347-16.78-9.73-16.78-21.733S27.834 19.126 32 11.145c3.718 8.157 16.78 9.73 16.78 21.734z" fill="#fbc721"/>
</symbol>

<symbol id="nut" viewBox="0 0 64 64">
    <title>Orzech</title>
    <path d="M42.905 32c0 7.067-4.883 12.796-10.905 12.796-6.022 0-10.905-5.729-10.905-12.796 0-10.24 10.216-11.442 10.905-12.796.61 1.422 10.905 2.335 10.905 12.796z" fill="#a05a2c"/>
</symbol>

<symbol id="grape" viewBox="0 0 64 64">
    <title>Winogrono</title>
    <g>
        <path d="M10.558 16.27c.45.87 2.857 2.171 2.222 3.216-.724 1.585-2.73 7.47-2.092 13.04.743-4.356 1.004-7.897 2.66-11.935.535-.783 1.495-1.203 2.3-.094 2.154 2.971 18.992 19.432 28.184 21.79-11.983-6.064-25.903-20.462-28.27-23.321-.212-.256-.504-1.179.04-1.489 1.612-.92 3.304-1.33 9.971-.496-4.51-1.15-8.133-1.557-10.139-.354-.893.51-1.53.468-2.382 0-.726-.196-1.018-.426-2.495-.356z" fill="#a05a2c"/><ellipse cx="20.626" cy="26.716" rx="3.275" ry="4.126" transform="rotate(22.782)" fill="#c5cd42"/><ellipse cx="20.555" cy="27.469" rx="3.275" ry="4.126" transform="rotate(12.122)" fill="#b1be35"/><ellipse cx="19.587" cy="28.892" rx="3.275" ry="4.126" fill="#ccc93d"/><ellipse cx="20.371" cy="33.924" rx="3.275" ry="4.126" transform="rotate(13.323)" fill="#bbcd42"/><ellipse cx="-27.722" cy="27.706" rx="3.275" ry="4.126" transform="rotate(-96.892)" fill="#b2bf2a"/><ellipse cx="-7.494" cy="31.792" rx="3.275" ry="4.126" transform="rotate(-63.334)" fill="#c2c936"/><ellipse cx="-18.838" cy="22.268" rx="3.275" ry="4.126" transform="rotate(-84.875)" fill="#b6c036"/><ellipse cx="-15.23" cy="27.808" rx="3.275" ry="4.126" transform="rotate(-87.222)" fill="#acb924"/><ellipse cx="19.504" cy="20.257" rx="3.275" ry="4.126" transform="rotate(11.143)" fill="#b8c338"/><ellipse cx="31.508" cy="35.494" rx="3.275" ry="4.126" transform="rotate(11.806)" fill="#c5cd42"/><ellipse cx="25.788" cy="32.234" rx="3.275" ry="4.126" transform="rotate(11.804)" fill="#c5cd42"/><ellipse cx="14.035" cy="38.789" rx="3.275" ry="4.126" transform="rotate(-15.623)" fill="#b1be35"/><ellipse cx="8.013" cy="44.042" rx="3.275" ry="4.126" transform="rotate(-30.18)" fill="#c1c93d"/><ellipse cx="-35.07" cy="28.925" rx="3.275" ry="4.126" transform="rotate(-103.203)" fill="#c2c936"/><ellipse cx="-21.385" cy="33.692" rx="3.275" ry="4.126" transform="rotate(-80.6)" fill="#b0c036"/><ellipse cx="-11.214" cy="34.726" rx="3.275" ry="4.126" transform="rotate(-60.144)" fill="#b8c338"/><ellipse cx="-46.535" cy="43.405" rx="3.275" ry="4.126" transform="rotate(-95.95)" fill="#cecd42"/><ellipse cx="-24.419" cy="46.112" rx="3.275" ry="4.126" transform="rotate(-81.188)" fill="#cdc936"/><ellipse cx="-23.665" cy="41.334" rx="3.275" ry="4.126" transform="rotate(-77.05)" fill="#b1be35"/><ellipse cx="-25.829" cy="47.288" rx="3.275" ry="4.126" transform="rotate(-75.306)" fill="#c1c93d"/><ellipse cx="-17.308" cy="68.52" rx="3.275" ry="4.126" transform="rotate(-64.964)" fill="#b6c036"/><ellipse cx="31.642" cy="38.695" rx="3.275" ry="4.126" transform="rotate(5.025)" fill="#b8c338"/><ellipse cx="-3.733" cy="67.914" rx="3.275" ry="4.126" transform="rotate(-49.565)" fill="#c5cd42"/><ellipse cx="11.97" cy="61.653" rx="3.275" ry="4.126" transform="rotate(-31.926)" fill="#b1be35"/><ellipse cx="-37.651" cy="55.603" rx="3.275" ry="4.126" transform="rotate(-87.5)" fill="#c2c936"/><ellipse cx="-28.545" cy="52.645" rx="3.275" ry="4.126" transform="rotate(-81.667)" fill="#b6c036"/><ellipse cx="32.852" cy="46.592" rx="3.275" ry="4.126" fill="#bccd42"/><ellipse cx="33.533" cy="39.914" rx="3.275" ry="4.126" fill="#c1c338"/><ellipse cx="25.118" cy="52.398" rx="3.275" ry="4.126" transform="rotate(-15.173)" fill="#c5cd42"/><ellipse cx="-35.6" cy="47.555" rx="3.275" ry="4.126" transform="rotate(-84.605)" fill="#b7c93d"/>
    </g>
</symbol>

<symbol id="watermelon" viewBox="0 0 64 64">
    <title>Arbuz</title>
    <circle r="25.702" cy="32.879" cx="32" fill="#0d730d"/>
</symbol>

<symbol id="cherry" viewBox="0 0 64 64">
    <title>Czereśnia</title>
    <g>
        <circle cx="35.051" cy="44.88" r="9.783" fill="#c30000"/><path d="M36.644 37.702c3.247-9.512.403-20.287.037-23.347-.031-1.352 1.723-1.363 1.816-.124-.206 1.238-.332 4.626.371 8.214.96 4.898-.307 11.052-.288 15.892-1.084-.099-1.214-.325-1.936-.635z" fill="#a9c558"/><path d="M19.632 22.306c-.941 2.612-.482 3.76 1.612 3.543 7.02-.725 11.25-3.495 13.12-9.969.53-1.836.477-1.262 1.985-1.92.544-.28.468-.631-.08-.535-2.093.866-1.586.355-4.357.484-5.238.244-10.06 2.24-12.28 8.397z" fill="#adc65d"/><path d="M36.328 10.84c.196-.615.938-1.476 1.537-1.503.295-.013 1.215.63 1.352 1.472.185 1.13.311 2.884-.217 3.415-.536.54-2.507.362-2.9-.082-.48-.544-.091-2.306.228-3.303z" fill="#d0c89c"/>
    </g>
</symbol>

<symbol id="plum" viewBox="0 0 64 64">
    <title>Śliwka</title>
    <path d="M42.73 28.194c0 5.225-6.773 14.536-11.999 14.536a9.462 9.462 0 0 1-9.461-9.461c0-5.226 9.31-12 14.536-12 5.226 0 6.924 1.7 6.924 6.925z" fill="#9600bc"/>
</symbol>

<symbol id="pineapple" viewBox="0 0 64 64">
    <title>Ananas</title>
    <g>
        <path d="M47.355 36.958l-14.894-1.494-16.143 2.746.014 2.5 16.158-3.22 14.88 1.752z" fill="#0ff"/><path d="M44.422 48.905c0 8.918-2.33 13.232-11.352 13.232-8.424 0-11.864-4.597-11.864-13.232 0-9.283 3.568-14.081 11.864-14.081 8.297 0 11.352 5.203 11.352 14.081z" fill="#d3aa2f"/><path d="M29.53 19.715c-.298-5.526-1.19-15.131-2.296-17.852 3.358 3.103 5.908 9.776 6.206 14.622.297 4.845-3.91 3.23-3.91 3.23z" fill="#547636"/><path d="M34.715 20.82c-.085-4.463 3.018-11.943 8.798-17.937-2.465 5.356-4.317 9.933-5.568 14.367-1.072 3.8-3.23 3.57-3.23 3.57z" fill="#517931"/><path d="M30.975 17.717c.425-3.655 2.592-10.54 4.887-13.643.298 4.59-.085 14.706-.977 16.024-.322.474-.537 2.083-1.297 2.046-1.347-.067-2.613-4.427-2.613-4.427z" fill="#5f8037"/><path d="M35.947 23.923c1.318-4.293 3.273-7.65 10.074-11.901-3.485 2.933-7.226 8.543-8.076 11.646-.977 2.508-1.998.255-1.998.255z" fill="#527931"/><path d="M34.035 23.455c1.105-4.59 3.172-9.065 5.823-11.39 2.083-1.828 2.593-2.423 3.953-3.784-1.36 3.23-5.313 7.524-5.653 14.75-.102 2.165-1.635 4.938-2.481 4.677-1.134-.35-1.642-4.253-1.642-4.253z" fill="#60803b"/><path d="M36.118 27.79c.68-2.847 2.89-8.713 6.418-10.073-2.168 2.636-3.868 5.823-4.59 8.246-.478 1.6-1.828 1.828-1.828 1.828z" fill="#466b29"/><path d="M30.04 19.587c-1.488-4.675-4.761-8.84-8.459-11.178 3.655 4.038 6.206 8.883 7.65 13.304 1.446 3.57.808-2.126.808-2.126z" fill="#3e6221"/><path d="M34.375 24.475c-1.02-4.122-2.338-8.883-7.353-12.793.977 2.677 1.252 3.569 1.317 4.718.07 1.24 1.403 7.183 3.528 8.926 2.125 1.742 2.508-.85 2.508-.85z" fill="#5b7c3d"/><path d="M33.273 28.14c-1.54-4.288-4.767-9.473-10.155-11.4 2.942 3.146 5.211 6.997 6.091 10.756.85 3.188 4.064.644 4.064.644z" fill="#527736"/><path d="M34.438 32.083c1.36-2.976 3.42-9.242.139-12.603-.085.51.173 1.095-.885 1.958-1.077.878-2.56 4.753-1.547 8.423.942 3.415 2.293 2.222 2.293 2.222z" fill="#688b4a"/><path d="M34.672 29.087c2.21-3.783 6.588-7.8 8.161-8.692 1.573-.893 2.572-1.658 3.21-2.338-.532.978-1.166 1.644-2.062 2.168-1.922 1.124-5.25 4.91-6.61 8.182-.674 1.623-2.699.68-2.699.68z" fill="#6f9351"/><path d="M34.502 32.381c-.552-4.399-2.635-7.927-5.121-8.458-.49 1.658-.15 5.738 1.041 7.948 1.19 2.21 4.08.51 4.08.51z" fill="#5a7c40"/><path d="M31.187 30.34c-1.488-3.144-5.44-7.99-8.076-8.882 1.658 1.827 4.184 5.468 5.058 7.48.863 1.989 3.018 1.403 3.018 1.403z" fill="#416325"/><path d="M31.501 30.857c-1.202-1.834-3.907-4.058-6.732-4.208 1.893 1.292 2.775 2.421 3.366 4.208.595 1.798 2.284 2.975 2.284 2.975 1.172-.6 1.082-2.975 1.082-2.975z" fill="#57752d"/><path d="M35.82 29.703c1.87-3.315 6.163-5.015 8.84-7.395-.85 2.082-6.035 4.633-7.352 7.99-1.148 2.126-1.488-.595-1.488-.595z" fill="#57793a"/><path d="M33.227 32.211c1.998-3.018 5.356-5.695 8.033-6.205-1.572 1.657-4.038 4.1-4.547 6.29-.194.83-1.348 2.083-1.999 1.964-.966-.177-1.487-2.049-1.487-2.049z" fill="#486c2b"/><path d="M31.846 33.146c1.275-2.699 2.805-5.228 5.1-4.824.085 1.19-.296 3.236-1.849 4.527-1.72 1.43-3.251.297-3.251.297z" fill="#668749"/><path d="M31.4 33.274c-1.786-1.445-3.91-3.826-6.291-3.91a287.887 287.887 0 0 1 3.995 3.74c1.53.425 2.296.17 2.296.17z" fill="#3e5d25"/><path d="M30.299 36.056c-.571-1.713-.03-3.456.03-6.01 2.164.15 4.328 2.614 4.478 4.478.15 1.863-4.508 1.532-4.508 1.532z" fill="#507334"/><path d="M33.822 34.889c.893-1.785 2.763-4.93 6.418-5.653-3.102 2.635-3.867 4.633-4.25 5.61-.383.978-2.168.043-2.168.043z" fill="#577d3c"/><path d="M33.44 35.229c1.785-2.168 4.93-3.953 8.543-4.42-3.57 1.912-4.624 3.127-5.398 4.845-.461 1.024-3.145-.425-3.145-.425z" fill="#466f2e"/><path d="M31.315 35.994c.765-1.7 2.295-3.315 3.782-3.528.553 1.02.723 2.805.34 3.613-.382.808-4.122-.085-4.122-.085z" fill="#486b2e"/><path d="M34.29 37.524c1.062-1.87 3.825-4.42 6.588-4.59-2.338 1.572-3.443 2.805-3.91 3.995-.468 1.19-2.678.595-2.678.595z" fill="#577c3c"/><path d="M35.352 36.717c1.233-1.403 2.593-1.998 4.803-1.998-1.657.68-2.72 1.233-3.06 2.083-.34.85-1.743-.085-1.743-.085z" fill="#6f8c49"/><path d="M36.458 37.142c.85-.765 2.252-1.36 2.932-1.446-.425.596-1.232 1.36-1.955 1.53-.722.17-.977-.084-.977-.084z" fill="#719152"/><path d="M32.972 37.992c.68-1.53.978-2.168 1.998-2.636 1.36.425 2.465 1.087 2.168 2.168-.425.893-3.486 1.105-4.166.468z" fill="#527637"/><path d="M32.462 34.846c-1.317-1.402-5.738-3.825-8.543-4.037 2.975 1.657 4.142 2.759 5.015 4.165 1.208 1.945 3.528-.128 3.528-.128z" fill="#47702e"/><path d="M31.102 35.739c-1.53-1.233-3.655-2.125-5.483-2.21 2.168 1.19 2.848 1.785 3.273 2.38.425.595 2.21-.17 2.21-.17z" fill="#415e25"/><path d="M33.355 36.377c-.638-1.658-1.998-2.55-3.443-2.55-.383 1.147-.213 2.167.382 3.102.426.68 2.89 0 3.06-.552z" fill="#48652a"/><path d="M29.827 36.207c-.85-.766-1.743-1.573-3.57-1.616 1.402.638 2.161 1.307 2.762 2.168.677.97.808-.552.808-.552z" fill="#354616"/><path d="M33.057 36.93c-1.385-.826-2.48-1.398-4.123-1.319.11 1 1.148 1.828 1.148 1.828.993.54 3.243.4 2.975-.51z" fill="#374e1b"/><path d="M33.549 35.739c.496.606 1.488 1.87.595 2.295-.893.425-2.031.163-2.423-.467-.425-.686.84-1.153 1.828-1.828z" fill="#5a8040"/><path d="M43.157 36.7a44.354 44.354 0 0 0-2.442.04c-3.536.154-5.247 1.041-5.83 1.379-1.615.935-2.762 1.02-4.888 0-.582-.28-2.364-.905-5.27-.934-3.517-.035-7.11.988-7.885.988-1.213 0-1.243.201-1.243 1.094 0 1.148.095 1.53.86 1.53.532 0 1.242 1.777 1.454 2.584.002.005.008.009.01.013.394 3.253 2.623 4.67 6.359 4.67 3.383 0 5.63-1.52 6.245-4.117.615-2.599 1.329-3.213 2.099-3.22.713-.005 1.363.429 1.895 2.94.531 2.51 2.696 3.717 6.143 3.717 4.082 0 6.157-2.566 6.242-5.394.084-2.828.698-2.765.932-2.765.446 0 .563-.266.563-1.19 0-.882-.032-1.127-1.19-1.127-.346 0-1.838-.182-4.054-.208zm-2.488.992c4.272 0 5.667.424 5.667 3.846 0 3.252-2.117 5.17-5.667 5.17-3.592 0-5.59-1.5-5.59-5.007 0-3.252 1.913-4.01 5.59-4.01zm-16.38.678c4.271 0 5.666.425 5.666 3.848 0 3.252-2.117 5.168-5.667 5.168-3.592 0-5.59-1.498-5.59-5.005 0-3.253 1.913-4.01 5.59-4.01z" fill="#0ff"/><path d="M40.67 37.692c-3.678 0-5.59.757-5.59 4.009 0 3.507 1.997 5.007 5.59 5.007 3.549 0 5.666-1.918 5.666-5.17 0-3.422-1.395-3.846-5.667-3.846zm-16.382.678c-3.677 0-5.59.758-5.59 4.01 0 3.508 1.998 5.006 5.59 5.006 3.55 0 5.667-1.916 5.667-5.168 0-3.423-1.395-3.848-5.667-3.848z" fill-opacity=".471"/>
    </g>
</symbol>

<symbol id="hblueberries" viewBox="0 0 64 64">
    <title>Jagody (trudny)</title>
    <path d="M44.378 12.352a8.08 8.08 0 1 0-.002 16.162 8.08 8.08 0 0 0 .002-16.162zm-20.45 2.793a6.565 6.565 0 1 0 .001 13.131 6.565 6.565 0 0 0 0-13.131zM33.74 30.78a5.624 5.624 0 0 0 0 11.248 5.624 5.624 0 0 0 0-11.248zm-14.828 6.131a7.369 7.369 0 0 0 0 14.736 7.369 7.369 0 0 0 0-14.736zm25.668 2.381a5.002 5.002 0 1 0 0 10.004 5.002 5.002 0 0 0 0-10.004z" fill="#3e009f"/>
</symbol>

<symbol id="happle" viewBox="0 0 64 64">
    <title>Jabłko (trudny)</title>
    <g><path d="M50.775 32.606c0 7.776-4.932 18.284-17.238 18.45-12.306.166-17.298-9.704-17.298-17.54 0-9.655 6.554-15.663 17.298-15.663 10.685 0 17.238 5.1 17.238 14.753z" fill="#cf0"/><path d="M31.508 18.55c5.541-.04 7.705 1.4 4.801 2.03-2.378.514-4.07 1.844-5.377 1.892-2.878.107-5.984-3.877.576-3.923z" fill="#aad400"/><path d="M31.917 22.01c-.106-.969-.228-1.105-.682-1.454-.454-.348-1.06-.704-1.643-2.25-.517-1.37-3.515-3.496-6.386-4.692a9.02 9.02 0 0 0-5.15-.503c-2.485.518-4.31 1.943-4.831 4.348 1.378-.578 3.065 1.06 5.317 1.785 2.326.747 4.653 1.162 6.376 2.062 1.28.668 4.052 1.394 4.923.31.62-.769 1.137-.991 1.455-.689.318.303.62 1.084.62 1.084z" fill="#5a8921"/><path d="M31.91 22.185c-.289-1.394-.707-4.071-.584-5.037.088-.688 1.8-.348 1.636.424-.272 1.275-.432 3.189-.28 4.204-.341.31-.773.409-.773.409z" fill="#866139"/></g>
</symbol>

<symbol id="hnuts" viewBox="0 0 64 64">
    <title>Orzechy (trudny)</title>
    <path d="M46.092 10.12c-.889.999-9.844-.26-12.131 8.448-1.579 6.01 1.292 11.971 6.414 13.316 5.121 1.346 10.554-2.435 12.133-8.445 2.336-8.896-6.215-11.972-6.416-13.318zM17.84 30.409c-.233 1.417-9.09 5.427-6.157 14.65 2.025 6.366 8.064 10.128 13.489 8.402 5.424-1.725 8.18-8.284 6.156-14.65-2.997-9.422-12.53-7.296-13.488-8.402z" fill="#a05a2c"/>
</symbol>

<symbol id="hcherries" viewBox="0 0 64 64">
    <title>Wiśnie (trudny)</title>
    <g><circle cx="28.31" cy="52.454" r="9.783" transform="rotate(-13.07)" fill="#a10000"/><path d="M39.367 37.342c1.012-10-4.195-19.853-5.244-22.751-.336-1.31 1.371-1.717 1.742-.531.079 1.253.723 4.58 2.22 7.917 2.041 4.554 2.198 10.836 3.312 15.545-1.078.15-1.257-.042-2.03-.18z" fill="#a9c558"/><circle cx="35.198" cy="35.018" r="9.783" transform="rotate(15.497)" fill="#c30000"/><path d="M28.014 36.658c5.671-8.298 5.81-19.441 6.274-22.488.332-1.311 2.025-.852 1.784.366-.53 1.138-1.556 4.369-1.837 8.015-.384 4.976-3.25 10.568-4.524 15.237-1.018-.385-1.084-.638-1.697-1.13z" fill="#a9c558"/><path d="M17.831 23.63c-.773 2.666-.241 3.781 1.834 3.432 6.96-1.171 11.005-4.205 12.458-10.785.412-1.866.396-1.29 1.858-2.043.525-.314.427-.66-.113-.529-2.034.998-1.561.456-4.318.761-5.212.578-9.897 2.877-11.719 9.164z" fill="#adc65d"/><path d="M33.761 11.121c.157-.626.843-1.532 1.439-1.597.293-.031 1.252.55 1.443 1.382.256 1.117.495 2.86.002 3.423-.501.572-2.48.52-2.9.103-.513-.512-.238-2.295.017-3.31z" fill="#d0c89c"/></g>
</symbol>

<symbol id="hgrape" viewBox="0 0 64 64">
    <title>Winogrono (trudny)</title>
    <g><path d="M11.734 17.133c.426.823 2.7 2.052 2.1 3.039-.684 1.499-2.58 7.06-1.977 12.326.702-4.118.948-7.464 2.514-11.28.506-.741 1.413-1.138 2.173-.09 2.037 2.808 17.951 18.366 26.639 20.595-11.326-5.731-24.483-19.34-26.72-22.042-.2-.242-.475-1.114.039-1.407 1.523-.87 3.122-1.257 9.424-.47-4.264-1.086-7.687-1.47-9.583-.334-.844.482-1.447.442-2.251 0-.687-.185-.963-.402-2.358-.337z" fill="#a05a2c"/><ellipse cx="21.793" cy="26.19" rx="3.096" ry="3.9" transform="rotate(22.782)" fill="#75416b"/><ellipse cx="21.512" cy="27.31" rx="3.096" ry="3.9" transform="rotate(12.122)" fill="#7b5072"/><ellipse cx="20.267" cy="29.063" rx="3.096" ry="3.9" fill="#734766"/><ellipse cx="21.366" cy="33.367" rx="3.096" ry="3.9" transform="rotate(13.323)" fill="#684068"/><ellipse cx="-28.155" cy="27.718" rx="3.096" ry="3.9" transform="rotate(-96.892)" fill="#6b3f5f"/><ellipse cx="-7.864" cy="32.404" rx="3.096" ry="3.9" transform="rotate(-63.334)" fill="#513650"/><ellipse cx="-19.396" cy="22.951" rx="3.096" ry="3.9" transform="rotate(-84.875)" fill="#784872"/><ellipse cx="-16.063" cy="28.121" rx="3.096" ry="3.9" transform="rotate(-87.222)" fill="#6b4061"/><ellipse cx="20.496" cy="20.529" rx="3.096" ry="3.9" transform="rotate(11.143)" fill="#8a527f"/><ellipse cx="31.857" cy="34.907" rx="3.096" ry="3.9" transform="rotate(11.806)" fill="#6b3f5f"/><ellipse cx="26.451" cy="31.825" rx="3.096" ry="3.9" transform="rotate(11.804)" fill="#61486a"/><ellipse cx="14.483" cy="38.825" rx="3.096" ry="3.9" transform="rotate(-15.623)" fill="#614259"/><ellipse cx="8.208" cy="44.026" rx="3.096" ry="3.9" transform="rotate(-30.18)" fill="#73476e"/><ellipse cx="-35.256" cy="28.646" rx="3.096" ry="3.9" transform="rotate(-103.203)" fill="#61486a"/><ellipse cx="-21.657" cy="33.862" rx="3.096" ry="3.9" transform="rotate(-80.6)" fill="#5b3b58"/><ellipse cx="-11.247" cy="35.217" rx="3.096" ry="3.9" transform="rotate(-60.144)" fill="#7f5177"/><ellipse cx="-45.91" cy="42.588" rx="3.096" ry="3.9" transform="rotate(-95.95)" fill="#5b3b58"/><ellipse cx="-24.545" cy="45.586" rx="3.096" ry="3.9" transform="rotate(-81.188)" fill="#794868"/><ellipse cx="-23.684" cy="41.171" rx="3.096" ry="3.9" transform="rotate(-77.05)" fill="#55344f"/><ellipse cx="-25.665" cy="46.837" rx="3.096" ry="3.9" transform="rotate(-75.306)" fill="#734766"/><ellipse cx="-17.206" cy="67.095" rx="3.096" ry="3.9" transform="rotate(-64.964)" fill="#7d4d6c"/><ellipse cx="31.809" cy="38.167" rx="3.096" ry="3.9" transform="rotate(5.025)" fill="#603c5b"/><ellipse cx="-3.726" cy="66.663" rx="3.096" ry="3.9" transform="rotate(-49.565)" fill="#734766"/><ellipse cx="11.875" cy="60.689" rx="3.096" ry="3.9" transform="rotate(-31.926)" fill="#6a4360"/><ellipse cx="-37.263" cy="54.383" rx="3.096" ry="3.9" transform="rotate(-87.5)" fill="#6b3f5f"/><ellipse cx="-28.461" cy="51.749" rx="3.096" ry="3.9" transform="rotate(-81.667)" fill="#6b4369"/><ellipse cx="32.806" cy="45.791" rx="3.096" ry="3.9" fill="#5b3b58"/><ellipse cx="33.449" cy="39.48" rx="3.096" ry="3.9" fill="#6b3d5b"/><ellipse cx="24.975" cy="51.677" rx="3.096" ry="3.9" transform="rotate(-15.173)" fill="#7f5177"/><ellipse cx="-35.23" cy="46.859" rx="3.096" ry="3.9" transform="rotate(-84.605)" fill="#78466f"/></g>
</symbol>

<symbol id="hpineapple" viewBox="0 0 64 64">
    <title>Ananas (trudny)</title>
    <g><path d="M47.355 36.958l-14.894-1.494-16.143 2.746.014 2.5 16.158-3.22 14.88 1.752z" fill="#ff2a7f"/><path d="M44.423 48.905c0 8.918-2.33 13.232-11.353 13.232-8.424 0-11.864-4.597-11.864-13.232 0-9.283 3.568-14.081 11.864-14.081 8.297 0 11.353 5.203 11.353 14.081z" fill="#d3aa2f"/><path d="M29.53 19.715c-.298-5.526-1.19-15.131-2.296-17.852 3.358 3.103 5.908 9.776 6.206 14.622.297 4.845-3.91 3.23-3.91 3.23z" fill="#547636"/><path d="M34.715 20.82c-.085-4.463 3.018-11.943 8.798-17.937-2.465 5.356-4.317 9.933-5.568 14.367-1.072 3.8-3.23 3.57-3.23 3.57z" fill="#517931"/><path d="M30.975 17.717c.425-3.655 2.592-10.54 4.888-13.643.297 4.59-.085 14.706-.978 16.024-.322.474-.537 2.083-1.297 2.046-1.347-.067-2.613-4.427-2.613-4.427z" fill="#5f8037"/><path d="M35.948 23.923c1.317-4.293 3.272-7.65 10.073-11.901-3.485 2.933-7.226 8.543-8.076 11.646-.977 2.508-1.997.255-1.997.255z" fill="#527931"/><path d="M34.035 23.455c1.105-4.59 3.172-9.065 5.823-11.39 2.083-1.828 2.593-2.423 3.953-3.784-1.36 3.23-5.313 7.524-5.653 14.75-.102 2.165-1.635 4.938-2.481 4.677-1.134-.35-1.642-4.253-1.642-4.253z" fill="#60803b"/><path d="M36.118 27.79c.68-2.847 2.89-8.713 6.418-10.073-2.168 2.636-3.868 5.823-4.59 8.246-.478 1.6-1.828 1.828-1.828 1.828z" fill="#466b29"/><path d="M30.04 19.587c-1.488-4.675-4.76-8.84-8.459-11.178 3.656 4.038 6.206 8.883 7.651 13.304 1.445 3.57.808-2.126.808-2.126z" fill="#3e6221"/><path d="M34.375 24.475c-1.02-4.122-2.338-8.883-7.353-12.793.977 2.677 1.252 3.569 1.317 4.718.07 1.24 1.403 7.183 3.528 8.926 2.125 1.742 2.508-.85 2.508-.85z" fill="#5b7c3d"/><path d="M33.273 28.14c-1.54-4.288-4.767-9.473-10.155-11.4 2.942 3.146 5.211 6.997 6.091 10.756.85 3.188 4.064.644 4.064.644z" fill="#527736"/><path d="M34.438 32.083c1.36-2.976 3.42-9.242.14-12.603-.086.51.172 1.095-.886 1.958-1.077.878-2.56 4.753-1.547 8.423.942 3.415 2.293 2.222 2.293 2.222z" fill="#688b4a"/><path d="M34.672 29.087c2.21-3.783 6.589-7.8 8.161-8.692 1.573-.893 2.572-1.658 3.21-2.338-.532.978-1.165 1.644-2.062 2.168-1.922 1.124-5.25 4.91-6.61 8.182-.674 1.623-2.699.68-2.699.68z" fill="#6f9351"/><path d="M34.502 32.381c-.552-4.399-2.635-7.927-5.121-8.458-.49 1.658-.149 5.738 1.041 7.948s4.08.51 4.08.51z" fill="#5a7c40"/><path d="M31.187 30.34c-1.487-3.144-5.44-7.99-8.076-8.882 1.658 1.827 4.185 5.468 5.058 7.48.864 1.989 3.018 1.403 3.018 1.403z" fill="#416325"/><path d="M31.501 30.857c-1.202-1.834-3.907-4.058-6.732-4.208 1.893 1.292 2.775 2.421 3.366 4.208.595 1.798 2.284 2.975 2.284 2.975 1.172-.6 1.082-2.975 1.082-2.975z" fill="#57752d"/><path d="M35.82 29.703c1.87-3.315 6.163-5.015 8.84-7.395-.85 2.082-6.035 4.633-7.352 7.99-1.148 2.126-1.488-.595-1.488-.595z" fill="#57793a"/><path d="M33.227 32.211c1.998-3.018 5.356-5.695 8.034-6.205-1.573 1.657-4.038 4.1-4.548 6.29-.194.83-1.348 2.083-1.999 1.964-.966-.177-1.487-2.049-1.487-2.049z" fill="#486c2b"/><path d="M31.846 33.146c1.275-2.699 2.805-5.228 5.1-4.824.085 1.19-.296 3.236-1.848 4.527-1.72 1.43-3.252.297-3.252.297z" fill="#668749"/><path d="M31.4 33.274c-1.786-1.445-3.91-3.826-6.29-3.91a287.887 287.887 0 0 1 3.994 3.74c1.53.425 2.296.17 2.296.17z" fill="#3e5d25"/><path d="M30.299 36.056c-.571-1.713-.03-3.456.03-6.01 2.164.15 4.328 2.614 4.478 4.478.15 1.863-4.508 1.532-4.508 1.532z" fill="#507334"/><path d="M33.822 34.889c.893-1.785 2.763-4.93 6.418-5.653-3.102 2.635-3.867 4.633-4.25 5.61-.382.978-2.168.043-2.168.043z" fill="#577d3c"/><path d="M33.44 35.229c1.785-2.168 4.93-3.953 8.543-4.42-3.57 1.912-4.624 3.127-5.398 4.845-.461 1.024-3.145-.425-3.145-.425z" fill="#466f2e"/><path d="M31.315 35.994c.765-1.7 2.295-3.315 3.783-3.528.552 1.02.722 2.805.34 3.613-.383.808-4.123-.085-4.123-.085z" fill="#486b2e"/><path d="M34.29 37.524c1.063-1.87 3.825-4.42 6.588-4.59-2.338 1.572-3.443 2.805-3.91 3.995-.468 1.19-2.678.595-2.678.595z" fill="#577c3c"/><path d="M35.353 36.717c1.232-1.403 2.592-1.998 4.802-1.998-1.657.68-2.72 1.233-3.06 2.083-.34.85-1.742-.085-1.742-.085z" fill="#6f8c49"/><path d="M36.458 37.142c.85-.765 2.252-1.36 2.932-1.446-.425.596-1.232 1.36-1.955 1.53-.722.17-.977-.084-.977-.084z" fill="#719152"/><path d="M32.972 37.992c.68-1.53.978-2.168 1.998-2.636 1.36.425 2.465 1.087 2.168 2.168-.425.893-3.486 1.105-4.166.468z" fill="#527637"/><path d="M32.462 34.846c-1.317-1.402-5.738-3.825-8.543-4.037 2.975 1.657 4.142 2.759 5.015 4.165 1.208 1.945 3.528-.128 3.528-.128z" fill="#47702e"/><path d="M31.102 35.739c-1.53-1.233-3.655-2.125-5.483-2.21 2.168 1.19 2.848 1.785 3.273 2.38.425.595 2.21-.17 2.21-.17z" fill="#415e25"/><path d="M33.355 36.377c-.638-1.658-1.998-2.55-3.443-2.55-.383 1.147-.212 2.167.383 3.102.425.68 2.89 0 3.06-.552z" fill="#48652a"/><path d="M29.827 36.207c-.85-.766-1.743-1.573-3.57-1.616 1.402.638 2.161 1.307 2.762 2.168.678.97.808-.552.808-.552z" fill="#354616"/><path d="M33.057 36.93c-1.385-.826-2.48-1.398-4.123-1.319.11 1 1.148 1.828 1.148 1.828.993.54 3.243.4 2.975-.51z" fill="#374e1b"/><path d="M33.549 35.739c.497.606 1.488 1.87.595 2.295-.893.425-2.031.163-2.423-.467-.425-.686.84-1.153 1.828-1.828z" fill="#5a8040"/><path d="M43.157 36.7c-.739-.009-1.558.001-2.442.04-3.536.154-5.247 1.041-5.83 1.379-1.615.935-2.762 1.02-4.887 0-.583-.28-2.364-.905-5.27-.934-3.518-.035-7.11.988-7.886.988-1.213 0-1.243.201-1.243 1.094 0 1.148.095 1.53.86 1.53.532 0 1.242 1.777 1.455 2.584 0 .004.007.01.009.013.393 3.253 2.623 4.67 6.358 4.67 3.384 0 5.632-1.52 6.246-4.117.615-2.599 1.329-3.213 2.099-3.22.713-.005 1.363.429 1.895 2.94.531 2.51 2.696 3.717 6.143 3.717 4.082 0 6.157-2.566 6.242-5.394.084-2.828.697-2.765.932-2.765.446 0 .563-.266.563-1.19 0-.882-.032-1.127-1.19-1.127-.346 0-1.838-.182-4.054-.208zm-2.488.992c4.272 0 5.667.424 5.667 3.846 0 3.252-2.117 5.17-5.667 5.17-3.592 0-5.59-1.5-5.59-5.007 0-3.252 1.913-4.01 5.59-4.01zm-16.38.678c4.271 0 5.666.425 5.666 3.848 0 3.252-2.117 5.168-5.667 5.168-3.592 0-5.59-1.498-5.59-5.005 0-3.253 1.913-4.01 5.59-4.01z" fill="#ff2a7f"/><path d="M40.67 37.692c-3.678 0-5.59.757-5.59 4.009 0 3.507 1.997 5.007 5.59 5.007 3.549 0 5.666-1.918 5.666-5.17 0-3.422-1.395-3.846-5.667-3.846zm-16.382.678c-3.677 0-5.59.758-5.59 4.01 0 3.508 1.998 5.006 5.59 5.006 3.55 0 5.667-1.916 5.667-5.168 0-3.423-1.395-3.848-5.667-3.848z" fill-opacity=".471"/></g>
</symbol>

</svg>