<svg version="1.1" xmlns="http://www.w3.org/2000/svg" data-author="danbraj" style="position: absolute; width: 0; height: 0; overflow: hidden;">

<symbol id="0" viewBox="0 0 16 16">
    <title>1</title>
    <circle cx="8" cy="8" r="6"/>
</symbol>

<symbol id="1" viewBox="0 0 16 16">
    <title>2</title>
    <path d="M2 2h12V14H2z"/>
</symbol>

<symbol id="2" viewBox="0 0 16 16">
    <title>3</title>
    <path d="M14 14L8 2 2 14h12z"/>
</symbol>

<symbol id="3" viewBox="0 0 16 16">
    <title>4</title>
    <path d="M9 7h5v2H9v5H7V9H2V7H7V2h2V7z"/>
</symbol>

<symbol id="4" viewBox="0 0 16 16">
    <title>5</title>
    <path d="M9.414 8l3.536 3.536-1.414 1.414L8 9.414 4.464 12.95 3.05 11.536 6.586 8 3.05 4.464 4.464 3.05 8 6.586l3.536-3.536 1.414 1.414L9.414 8z"/>
</symbol>

<symbol id="5" viewBox="0 0 16 16">
    <title>6</title>
    <path d="M15.012 3H6L.988 13H10l5.012-10z"/>
</symbol>

<symbol id="6" viewBox="0 0 16 16">
    <title>7</title>
    <path d="M8 1.677l6.648 4.83-2.539 7.816H3.891L1.352 6.507 8 1.677z"/>
</symbol>

<symbol id="7" viewBox="0 0 16 16">
    <title>8</title>
    <path d="M5 2h6V14H5z"/>
</symbol>

<symbol id="8" viewBox="0 0 16 16">
    <title>9</title>
    <path d="M11 3H5l-3 10h12l-3-10z"/>
</symbol>

<symbol id="9" viewBox="0 0 16 16">
    <title>10</title>
    <path d="M14.365 8.006L7.994 1.635 1.635 7.994l6.371 6.371 6.359-6.359z"/>
</symbol>

<symbol id="10" viewBox="0 0 16 16">
    <title>11</title>
    <path d="M6.568 3.449A1.464 1.464 0 0 1 8 1.666a1.468 1.468 0 0 1 1.432 1.783L8.401 8.116l4.121-2.422a1.467 1.467 0 1 1 .885 2.724l-4.758.462 3.578 3.17a1.469 1.469 0 0 1-.111 2.284 1.467 1.467 0 0 1-2.206-.601L8 9.352l-1.91 4.381a1.467 1.467 0 1 1-2.317-1.683l3.578-3.17-4.758-.462a1.467 1.467 0 1 1 .885-2.724l4.121 2.422-1.031-4.667z"/>
</symbol>

<symbol id="11" viewBox="0 0 16 16">
    <title>12</title>
    <path d="M8 4.34c1.153-2 3.46-2 4.614-.904 1.153 1.096 1.153 3.287 0 5.479-.808 1.643-2.884 3.287-4.614 4.383-1.73-1.096-3.806-2.74-4.614-4.383-1.153-2.192-1.153-4.383 0-5.479C4.54 2.34 6.847 2.34 8 4.34z"/>
</symbol>

<symbol id="12" viewBox="0 0 16 16" fill-rule="evenodd"> <!-- nakładka -->
    <title>13</title>
    <path d="M8 1.999A6.004 6.004 0 0 1 14.001 8 6.004 6.004 0 0 1 8 14.001 6.004 6.004 0 0 1 1.999 8 6.004 6.004 0 0 1 8 1.999zm0 1.486A4.517 4.517 0 0 1 12.515 8 4.517 4.517 0 0 1 8 12.515 4.517 4.517 0 0 1 3.485 8 4.517 4.517 0 0 1 8 3.485z"/>
</symbol>

<symbol id="13" viewBox="0 0 16 16">
    <title>14</title>
    <path d="M15.003 7.936l-3.501 6.065H4.498L.997 7.936l3.501-6.065h7.004l3.501 6.065z"/>
</symbol>

<symbol id="14" viewBox="0 0 16 16">
    <title>15</title>
    <ellipse cx="8" cy="8" rx="3.998" ry="6.001"/>
</symbol>

<symbol id="15" viewBox="0 0 16 16">
    <title>16</title>
    <path d="M10.681 1.527l3.792 3.792v5.362l-3.792 3.792H5.319l-3.792-3.792V5.319l3.792-3.792h5.362z"/>
</symbol>

<symbol id="16" viewBox="0 0 16 16">
    <title>17</title>
    <path d="M14.365 8.006L9.994 3.635 1.635 7.994l8.371 4.371 4.359-4.359z"/>
</symbol>

<symbol id="17" viewBox="0 0 16 16">
    <title>18</title>
    <path d="M1 3H10l5 10H6L1 3z"/>
</symbol>

</svg>