<svg version="1.1" xmlns="http://www.w3.org/2000/svg" data-author="danbraj" style="position: absolute; width: 0; height: 0; overflow: hidden;">

<defs>

<symbol id="apple" viewBox="0 0 64 64">
    <title>Jabłko</title>
    <circle r="25.702" cy="32.879" cx="32" fill="#ed464f"/>
</symbol>

<symbol id="banana" viewBox="0 0 64 64">
    <title>Banan</title>
    <path d="M19.583 5.419C-8.62 39.605 24.157 73.094 57.287 49.453 33.238 48.281 14.145 25.26 19.583 5.42z" fill="#edd04f" paint-order="markers fill stroke"/>
</symbol>

<symbol id="blueberries" viewBox="0 0 64 64">
    <title>Jagody</title>
    <path d="M23.074 11.625a7.701 7.701 0 0 0-7.7 7.702 7.701 7.701 0 0 0 7.7 7.702 7.701 7.701 0 0 0 7.702-7.702 7.701 7.701 0 0 0-7.702-7.702zm22.434 8.713a7.654 7.654 0 0 0-7.654 7.654 7.654 7.654 0 0 0 7.654 7.653 7.654 7.654 0 0 0 7.652-7.653 7.654 7.654 0 0 0-7.652-7.654zm-26.87 13.477a8.93 8.93 0 0 0-8.93 8.93 8.93 8.93 0 0 0 8.93 8.93 8.93 8.93 0 0 0 8.93-8.93 8.93 8.93 0 0 0-8.93-8.93zm22.054 8.808a7.276 7.276 0 0 0-7.276 7.276 7.276 7.276 0 0 0 7.276 7.276 7.276 7.276 0 0 0 7.276-7.276 7.276 7.276 0 0 0-7.276-7.276z" fill="#3e009f" paint-order="markers fill stroke"/>
</symbol>

<symbol id="strawberry" viewBox="0 0 64 64">
    <title>Truskawka</title>
    <path d="M13.714 21.59c4.94-10.432 30.248-11.22 36.567 0 6.541 11.614-14.396 33.928-18.328 33.928-3.932 0-24.826-20.019-18.24-33.928z" fill="#d2001d"/>
</symbol>

<symbol id="pear" viewBox="0 0 64 64">
    <title>Gruszka</title>
    <path d="M31.81 10.752c5.988 0 5.444 6.46 7.799 9.956 3.886 5.772 10.383 7.63 10.383 18.108 0 10.516-7.983 17.97-17.912 18.12-9.93.15-18.072-6.103-18.072-14.532 0-13.025 5.787-13.403 9.459-19.691 2.45-4.198 2.353-11.96 8.342-11.96z" fill="#bfc721"/>
</symbol>

<symbol id="lemon" viewBox="0 0 64 64">
    <title>Cytryna</title>
    <path d="M48.78 32.879c0 12.003-13.347 13.477-16.78 21.733-3.15-8.347-16.78-9.73-16.78-21.733S27.834 19.126 32 11.145c3.718 8.157 16.78 9.73 16.78 21.734z" fill="#fbc721" paint-order="markers fill stroke"/>
</symbol>

<symbol id="nut" viewBox="0 0 64 64">
    <title>Orzech</title>
    <path d="M41.26 32.879c0 6.001-4.146 10.867-9.26 10.867s-9.26-4.866-9.26-10.867c0-8.696 8.675-9.717 9.26-10.867.519 1.208 9.26 1.983 9.26 10.867z" fill="#a05a2c" paint-order="markers fill stroke"/>
</symbol>

<symbol id="grape" viewBox="0 0 64 64">
    <title>Winogrono</title>
    <path d="M10.558 16.27c.45.87 2.857 2.171 2.222 3.216-.724 1.585-2.73 7.47-2.092 13.04.743-4.356 1.004-7.897 2.66-11.935.535-.783 1.495-1.203 2.3-.094 2.154 2.971 18.992 19.432 28.184 21.79-11.983-6.064-25.903-20.462-28.27-23.321-.212-.256-.504-1.179.04-1.489 1.612-.92 3.304-1.33 9.971-.496-4.51-1.15-8.133-1.557-10.139-.354-.893.51-1.53.468-2.382 0-.726-.196-1.018-.426-2.495-.356z" fill="#a05a2c"/><ellipse cx="20.626" cy="26.716" rx="3.275" ry="4.126" transform="rotate(22.782)" fill="#c5cd42" paint-order="markers fill stroke"/><ellipse cx="20.555" cy="27.469" rx="3.275" ry="4.126" transform="rotate(12.122)" fill="#b1be35" paint-order="markers fill stroke"/><ellipse cx="19.587" cy="28.892" rx="3.275" ry="4.126" fill="#ccc93d" paint-order="markers fill stroke"/><ellipse cx="20.371" cy="33.924" rx="3.275" ry="4.126" transform="rotate(13.323)" fill="#bbcd42" paint-order="markers fill stroke"/><ellipse cx="-27.722" cy="27.706" rx="3.275" ry="4.126" transform="rotate(-96.892)" fill="#b2bf2a" paint-order="markers fill stroke"/><ellipse cx="-7.494" cy="31.792" rx="3.275" ry="4.126" transform="rotate(-63.334)" fill="#c2c936" paint-order="markers fill stroke"/><ellipse cx="-18.838" cy="22.268" rx="3.275" ry="4.126" transform="rotate(-84.875)" fill="#b6c036" paint-order="markers fill stroke"/><ellipse cx="-15.23" cy="27.808" rx="3.275" ry="4.126" transform="rotate(-87.222)" fill="#acb924" paint-order="markers fill stroke"/><ellipse cx="19.504" cy="20.257" rx="3.275" ry="4.126" transform="rotate(11.143)" fill="#b8c338" paint-order="markers fill stroke"/><ellipse cx="31.508" cy="35.494" rx="3.275" ry="4.126" transform="rotate(11.806)" fill="#c5cd42" paint-order="markers fill stroke"/><ellipse cx="25.788" cy="32.234" rx="3.275" ry="4.126" transform="rotate(11.804)" fill="#c5cd42" paint-order="markers fill stroke"/><ellipse cx="14.035" cy="38.789" rx="3.275" ry="4.126" transform="rotate(-15.623)" fill="#b1be35" paint-order="markers fill stroke"/><ellipse cx="8.013" cy="44.042" rx="3.275" ry="4.126" transform="rotate(-30.18)" fill="#c1c93d" paint-order="markers fill stroke"/><ellipse cx="-35.07" cy="28.925" rx="3.275" ry="4.126" transform="rotate(-103.203)" fill="#c2c936" paint-order="markers fill stroke"/><ellipse cx="-21.385" cy="33.692" rx="3.275" ry="4.126" transform="rotate(-80.6)" fill="#b0c036" paint-order="markers fill stroke"/><ellipse cx="-11.214" cy="34.726" rx="3.275" ry="4.126" transform="rotate(-60.144)" fill="#b8c338" paint-order="markers fill stroke"/><ellipse cx="-46.535" cy="43.405" rx="3.275" ry="4.126" transform="rotate(-95.95)" fill="#cecd42" paint-order="markers fill stroke"/><ellipse cx="-24.419" cy="46.112" rx="3.275" ry="4.126" transform="rotate(-81.188)" fill="#cdc936" paint-order="markers fill stroke"/><ellipse cx="-23.665" cy="41.334" rx="3.275" ry="4.126" transform="rotate(-77.05)" fill="#b1be35" paint-order="markers fill stroke"/><ellipse cx="-25.829" cy="47.288" rx="3.275" ry="4.126" transform="rotate(-75.306)" fill="#c1c93d" paint-order="markers fill stroke"/><ellipse cx="-17.308" cy="68.52" rx="3.275" ry="4.126" transform="rotate(-64.964)" fill="#b6c036" paint-order="markers fill stroke"/><ellipse cx="31.642" cy="38.695" rx="3.275" ry="4.126" transform="rotate(5.025)" fill="#b8c338" paint-order="markers fill stroke"/><ellipse cx="-3.733" cy="67.914" rx="3.275" ry="4.126" transform="rotate(-49.565)" fill="#c5cd42" paint-order="markers fill stroke"/><ellipse cx="11.97" cy="61.653" rx="3.275" ry="4.126" transform="rotate(-31.926)" fill="#b1be35" paint-order="markers fill stroke"/><ellipse cx="-37.651" cy="55.603" rx="3.275" ry="4.126" transform="rotate(-87.5)" fill="#c2c936" paint-order="markers fill stroke"/><ellipse cx="-28.545" cy="52.645" rx="3.275" ry="4.126" transform="rotate(-81.667)" fill="#b6c036" paint-order="markers fill stroke"/><ellipse cx="32.852" cy="46.592" rx="3.275" ry="4.126" fill="#bccd42" paint-order="markers fill stroke"/><ellipse cx="33.533" cy="39.914" rx="3.275" ry="4.126" fill="#c1c338" paint-order="markers fill stroke"/><ellipse cx="25.118" cy="52.398" rx="3.275" ry="4.126" transform="rotate(-15.173)" fill="#c5cd42" paint-order="markers fill stroke"/><ellipse cx="-35.6" cy="47.555" rx="3.275" ry="4.126" transform="rotate(-84.605)" fill="#b7c93d" paint-order="markers fill stroke"/>
</symbol>

</defs>

</svg>
